<svg xmlns="http://www.w3.org/2000/svg" width="266.41999999999996" height="35" viewBox="0 0 266.41999999999996 35"><rect class="svg__rect" x="0" y="0" width="139.78" height="35" fill="#31C4F3"/><rect class="svg__rect" x="137.78" y="0" width="128.64" height="35" fill="#389AD5"/><path class="svg__text" d="M15.69 22L14.22 22L14.22 13.47L16.14 13.47L18.60 20.01L21.06 13.47L22.97 13.47L22.97 22L21.49 22L21.49 19.19L21.64 15.43L19.12 22L18.06 22L15.55 15.43L15.69 19.19L15.69 22ZM28.49 22L26.95 22L30.17 13.47L31.50 13.47L34.73 22L33.18 22L32.49 20.01L29.18 20.01L28.49 22ZM30.83 15.28L29.60 18.82L32.07 18.82L30.83 15.28ZM40.17 22L38.69 22L38.69 13.47L40.17 13.47L43.98 19.54L43.98 13.47L45.45 13.47L45.45 22L43.97 22L40.17 15.95L40.17 22ZM50.06 19.16L50.06 19.16L50.06 13.47L51.54 13.47L51.54 19.18Q51.54 20.03 51.97 20.48Q52.40 20.93 53.25 20.93L53.25 20.93Q54.96 20.93 54.96 19.13L54.96 19.13L54.96 13.47L56.43 13.47L56.43 19.17Q56.43 20.53 55.56 21.32Q54.69 22.12 53.25 22.12L53.25 22.12Q51.78 22.12 50.92 21.33Q50.06 20.55 50.06 19.16ZM61.78 22L60.24 22L63.47 13.47L64.80 13.47L68.02 22L66.48 22L65.78 20.01L62.48 20.01L61.78 22ZM64.13 15.28L62.89 18.82L65.36 18.82L64.13 15.28ZM77.33 22L71.98 22L71.98 13.47L73.46 13.47L73.46 20.82L77.33 20.82L77.33 22ZM87.17 18.19L87.17 18.19L87.17 17.39Q87.17 16.19 87.59 15.27Q88.02 14.35 88.82 13.85Q89.62 13.35 90.67 13.35L90.67 13.35Q92.08 13.35 92.94 14.12Q93.81 14.89 93.95 16.29L93.95 16.29L92.47 16.29Q92.36 15.37 91.93 14.96Q91.50 14.55 90.67 14.55L90.67 14.55Q89.70 14.55 89.18 15.26Q88.67 15.96 88.65 17.33L88.65 17.33L88.65 18.09Q88.65 19.47 89.15 20.20Q89.64 20.92 90.60 20.92L90.60 20.92Q91.47 20.92 91.91 20.53Q92.35 20.14 92.47 19.22L92.47 19.22L93.95 19.22Q93.82 20.59 92.94 21.35Q92.06 22.12 90.60 22.12L90.60 22.12Q89.58 22.12 88.80 21.63Q88.03 21.15 87.61 20.26Q87.18 19.37 87.17 18.19ZM99.04 22L97.50 22L100.72 13.47L102.05 13.47L105.28 22L103.73 22L103.03 20.01L99.73 20.01L99.04 22ZM101.38 15.28L100.14 18.82L102.62 18.82L101.38 15.28ZM108.96 18.19L108.96 18.19L108.96 17.39Q108.96 16.19 109.39 15.27Q109.82 14.35 110.62 13.85Q111.42 13.35 112.47 13.35L112.47 13.35Q113.88 13.35 114.74 14.12Q115.60 14.89 115.74 16.29L115.74 16.29L114.27 16.29Q114.16 15.37 113.73 14.96Q113.30 14.55 112.47 14.55L112.47 14.55Q111.50 14.55 110.98 15.26Q110.46 15.96 110.45 17.33L110.45 17.33L110.45 18.09Q110.45 19.47 110.95 20.20Q111.44 20.92 112.40 20.92L112.40 20.92Q113.27 20.92 113.71 20.53Q114.15 20.14 114.27 19.22L114.27 19.22L115.74 19.22Q115.61 20.59 114.73 21.35Q113.86 22.12 112.40 22.12L112.40 22.12Q111.38 22.12 110.60 21.63Q109.82 21.15 109.40 20.26Q108.98 19.37 108.96 18.19ZM119.62 19.42L119.62 19.42L121.10 19.42Q121.10 20.15 121.58 20.55Q122.06 20.95 122.96 20.95L122.96 20.95Q123.73 20.95 124.12 20.63Q124.51 20.32 124.51 19.80L124.51 19.80Q124.51 19.24 124.12 18.94Q123.72 18.63 122.69 18.32Q121.66 18.01 121.05 17.63L121.05 17.63Q119.89 16.90 119.89 15.72L119.89 15.72Q119.89 14.69 120.73 14.02Q121.57 13.35 122.91 13.35L122.91 13.35Q123.80 13.35 124.50 13.68Q125.19 14.01 125.59 14.61Q125.99 15.22 125.99 15.96L125.99 15.96L124.51 15.96Q124.51 15.29 124.10 14.91Q123.68 14.54 122.90 14.54L122.90 14.54Q122.17 14.54 121.77 14.85Q121.37 15.16 121.37 15.71L121.37 15.71Q121.37 16.18 121.80 16.50Q122.23 16.81 123.23 17.10Q124.23 17.40 124.83 17.78Q125.43 18.16 125.72 18.65Q126.00 19.13 126.00 19.79L126.00 19.79Q126.00 20.86 125.18 21.49Q124.36 22.12 122.96 22.12L122.96 22.12Q122.04 22.12 121.26 21.77Q120.48 21.43 120.05 20.83Q119.62 20.22 119.62 19.42Z" fill="#FFFFFF"/><path class="svg__text" d="M153.76 15.48L151.18 15.48L151.18 13.60L158.70 13.60L158.70 15.48L156.13 15.48L156.13 22L153.76 22L153.76 15.48ZM162.64 17.80L162.64 17.80Q162.64 16.55 163.25 15.55Q163.85 14.56 164.91 14.00Q165.98 13.43 167.31 13.43L167.31 13.43Q168.64 13.43 169.70 14.00Q170.76 14.56 171.37 15.55Q171.98 16.55 171.98 17.80L171.98 17.80Q171.98 19.05 171.37 20.04Q170.76 21.04 169.70 21.60Q168.64 22.17 167.31 22.17L167.31 22.17Q165.98 22.17 164.91 21.60Q163.85 21.04 163.25 20.04Q162.64 19.05 162.64 17.80ZM165.04 17.80L165.04 17.80Q165.04 18.51 165.34 19.05Q165.64 19.60 166.16 19.90Q166.67 20.20 167.31 20.20L167.31 20.20Q167.95 20.20 168.46 19.90Q168.98 19.60 169.28 19.05Q169.58 18.51 169.58 17.80L169.58 17.80Q169.58 17.09 169.28 16.54Q168.98 16 168.46 15.70Q167.95 15.40 167.31 15.40L167.31 15.40Q166.67 15.40 166.16 15.70Q165.64 16 165.34 16.54Q165.04 17.09 165.04 17.80ZM186.06 22L183.68 22L183.68 13.60L187.52 13.60Q188.67 13.60 189.50 13.98Q190.34 14.35 190.80 15.06Q191.25 15.76 191.25 16.71L191.25 16.71Q191.25 17.62 190.83 18.30Q190.40 18.98 189.61 19.36L189.61 19.36L191.42 22L188.88 22L187.35 19.77L186.06 19.77L186.06 22ZM186.06 15.47L186.06 17.93L187.38 17.93Q188.11 17.93 188.48 17.61Q188.85 17.29 188.85 16.71L188.85 16.71Q188.85 16.12 188.48 15.79Q188.11 15.47 187.38 15.47L187.38 15.47L186.06 15.47ZM202.79 22L196.04 22L196.04 13.60L202.63 13.60L202.63 15.44L198.40 15.44L198.40 16.85L202.13 16.85L202.13 18.63L198.40 18.63L198.40 20.17L202.79 20.17L202.79 22ZM211.56 22L207.59 22L207.59 13.60L211.56 13.60Q212.95 13.60 214.01 14.12Q215.08 14.63 215.67 15.58Q216.26 16.53 216.26 17.80L216.26 17.80Q216.26 19.07 215.67 20.02Q215.08 20.97 214.01 21.48Q212.95 22 211.56 22L211.56 22ZM209.97 15.50L209.97 20.10L211.47 20.10Q212.55 20.10 213.20 19.49Q213.85 18.88 213.85 17.80L213.85 17.80Q213.85 16.72 213.20 16.11Q212.55 15.50 211.47 15.50L211.47 15.50L209.97 15.50ZM220.56 17.80L220.56 17.80Q220.56 16.54 221.16 15.54Q221.75 14.55 222.80 13.99Q223.86 13.43 225.17 13.43L225.17 13.43Q226.33 13.43 227.25 13.84Q228.17 14.25 228.79 15.02L228.79 15.02L227.28 16.39Q226.46 15.40 225.30 15.40L225.30 15.40Q224.61 15.40 224.08 15.70Q223.55 16 223.25 16.54Q222.95 17.09 222.95 17.80L222.95 17.80Q222.95 18.51 223.25 19.05Q223.55 19.60 224.08 19.90Q224.61 20.20 225.30 20.20L225.30 20.20Q226.46 20.20 227.28 19.22L227.28 19.22L228.79 20.58Q228.18 21.35 227.25 21.76Q226.33 22.17 225.17 22.17L225.17 22.17Q223.86 22.17 222.80 21.61Q221.75 21.05 221.16 20.05Q220.56 19.06 220.56 17.80ZM234.74 22L232.32 22L236.03 13.60L238.37 13.60L242.09 22L239.62 22L238.96 20.37L235.41 20.37L234.74 22ZM237.18 15.93L236.10 18.61L238.26 18.61L237.18 15.93ZM248.62 22L246.24 22L246.24 13.60L250.08 13.60Q251.22 13.60 252.06 13.98Q252.90 14.35 253.36 15.06Q253.82 15.76 253.82 16.71L253.82 16.71Q253.82 17.66 253.36 18.35Q252.90 19.05 252.06 19.42Q251.22 19.80 250.08 19.80L250.08 19.80L248.62 19.80L248.62 22ZM248.62 15.47L248.62 17.93L249.94 17.93Q250.67 17.93 251.04 17.61Q251.41 17.29 251.41 16.71L251.41 16.71Q251.41 16.12 251.04 15.80Q250.67 15.47 249.94 15.47L249.94 15.47L248.62 15.47Z" fill="#FFFFFF" x="150.78"/></svg>